# xmcd
#
# Track frame offsets:
#	150
#	15002
#	27529
#	43506
#	60008
#	76510
#	89937
#	108089
#	129166
#	143418
#	163145
#	178147
#	191649
#	208301
#	227278
#	246405
#	267257
#
# Disc length: 3934 seconds
#
# Revision: 1
# Processed by: cddbd v1.5.2PL0 Copyright (c) Steve Scherf et al.
# Submitted via: audiograbber 1.83.01
#
DISCID=d40f5c11
DTITLE=Bridges, Eugene Hideaway - Roots And Vine
DYEAR=1900
DGENRE=Blues
TTITLE0=Glory Glory
TTITLE1=Farewell, My Darling
TTITLE2=My Baby Loves Me
TTITLE3=Good Old Days
TTITLE4=Hold On
TTITLE5=They Call The Wind Mariah
TTITLE6=Rise Above It
TTITLE7=I Will Still Be In Love With You
TTITLE8=A Thing Called Love
TTITLE9=Under My Roof
TTITLE10=17 Miles To Go
TTITLE11=How Long Will It Take
TTITLE12=Nelly Bell
TTITLE13=Wayward Wind
TTITLE14=Basil's Bar
TTITLE15=Don't Call It Supper
TTITLE16=School House Blues
EXTD=
EXTT0=
EXTT1=
EXTT2=
EXTT3=
EXTT4=
EXTT5=
EXTT6=
EXTT7=
EXTT8=
EXTT9=
EXTT10=
EXTT11=
EXTT12=
EXTT13=
EXTT14=
EXTT15=
EXTT16=
PLAYORDER=
